<svg xmlns="http://www.w3.org/2000/svg" viewBox="0 0 8 8">
  <symbol id="pencil">
    <path d="M6 0l-1 1 2 2 1-1-2-2zm-2 2l-4 4v2h2l4-4-2-2z" />
  </symbol>
  <symbol id="print">
    <path d="M2 0v2h4v-2h-4zm-1.91 3c-.06 0-.09.04-.09.09v2.81c0 .05.04.09.09.09h.91v-2h6v2h.91c.05 0 .09-.04.09-.09v-2.81c0-.06-.04-.09-.09-.09h-7.81zm1.91 2v3h4v-3h-4z" />
  </symbol>
  <symbol id="">
    <path d="M6 0l-1 1 2 2 1-1-2-2zm-2 2l-4 4v2h2l4-4-2-2z" />
  </symbol>
  <symbol id="">
    <path d="M6 0l-1 1 2 2 1-1-2-2zm-2 2l-4 4v2h2l4-4-2-2z" />
  </symbol>
  <symbol id="">
    <path d="M6 0l-1 1 2 2 1-1-2-2zm-2 2l-4 4v2h2l4-4-2-2z" />
  </symbol>
  <symbol id="">
    <path d="M6 0l-1 1 2 2 1-1-2-2zm-2 2l-4 4v2h2l4-4-2-2z" />
  </symbol>
  <symbol id="">
    <path d="M6 0l-1 1 2 2 1-1-2-2zm-2 2l-4 4v2h2l4-4-2-2z" />
  </symbol>
  <symbol id="">
    <path d="M6 0l-1 1 2 2 1-1-2-2zm-2 2l-4 4v2h2l4-4-2-2z" />
  </symbol>
  <symbol id="">
    <path d="M6 0l-1 1 2 2 1-1-2-2zm-2 2l-4 4v2h2l4-4-2-2z" />
  </symbol>
</svg>
