<!-- https://github.com/iconic/open-iconic/tree/master/svg -->
<svg xmlns="http://www.w3.org/2000/svg" viewBox="0 0 8 8">
  <symbol id="pencil">
    <path d="M6 0l-1 1 2 2 1-1-2-2zm-2 2l-4 4v2h2l4-4-2-2z" />
  </symbol>
  <symbol id="print">
    <path d="M2 0v2h4v-2h-4zm-1.91 3c-.06 0-.09.04-.09.09v2.81c0 .05.04.09.09.09h.91v-2h6v2h.91c.05 0 .09-.04.09-.09v-2.81c0-.06-.04-.09-.09-.09h-7.81zm1.91 2v3h4v-3h-4z" />
  </symbol>
  <symbol id="document">
    <path d="M0 0v8h7v-4h-4v-4h-3zm4 0v3h3l-3-3zm-3 2h1v1h-1v-1zm0 2h1v1h-1v-1zm0 2h4v1h-4v-1z" />
  </symbol>
  <symbol id="code">
    <path d="M5 0l-3 6h1l3-6h-1zm-4 1l-1 2 1 2h1l-1-2 1-2h-1zm5 0l1 2-1 2h1l1-2-1-2h-1z" transform="translate(0 1)" />
  </symbol>
  <symbol id="cloud">
    <path d="M4.5 0c-1.21 0-2.27.86-2.5 2-1.1 0-2 .9-2 2s.9 2 2 2h4.5c.83 0 1.5-.67 1.5-1.5 0-.65-.42-1.29-1-1.5v-.5c0-1.38-1.12-2.5-2.5-2.5z" transform="translate(0 1)" />
  </symbol>
  <symbol id="download">
    <path d="M3 0v3h-2l3 3 3-3h-2v-3h-2zm-3 7v1h8v-1h-8z" />
  </symbol>
  <symbol id="link">
    <path d="M5.88.03c-.18.01-.36.03-.53.09-.27.1-.53.25-.75.47a.5.5 0 1 0 .69.69c.11-.11.24-.17.38-.22.35-.12.78-.07 1.06.22.39.39.39 1.04 0 1.44l-1.5 1.5c-.44.44-.8.48-1.06.47-.26-.01-.41-.13-.41-.13a.5.5 0 1 0-.5.88s.34.22.84.25c.5.03 1.2-.16 1.81-.78l1.5-1.5c.78-.78.78-2.04 0-2.81-.28-.28-.61-.45-.97-.53-.18-.04-.38-.04-.56-.03zm-2 2.31c-.5-.02-1.19.15-1.78.75l-1.5 1.5c-.78.78-.78 2.04 0 2.81.56.56 1.36.72 2.06.47.27-.1.53-.25.75-.47a.5.5 0 1 0-.69-.69c-.11.11-.24.17-.38.22-.35.12-.78.07-1.06-.22-.39-.39-.39-1.04 0-1.44l1.5-1.5c.4-.4.75-.45 1.03-.44.28.01.47.09.47.09a.5.5 0 1 0 .44-.88s-.34-.2-.84-.22z"
  />
  </symbol>
  <symbol id="eye">
    <path d="M4.03 0c-2.53 0-4.03 3-4.03 3s1.5 3 4.03 3c2.47 0 3.97-3 3.97-3s-1.5-3-3.97-3zm-.03 1c1.11 0 2 .9 2 2 0 1.11-.89 2-2 2-1.1 0-2-.89-2-2 0-1.1.9-2 2-2zm0 1c-.55 0-1 .45-1 1s.45 1 1 1 1-.45 1-1c0-.1-.04-.19-.06-.28-.08.16-.24.28-.44.28-.28 0-.5-.22-.5-.5 0-.2.12-.36.28-.44-.09-.03-.18-.06-.28-.06z"
  transform="translate(0 1)" />
  </symbol>
  <symbol id="command-line">
    <path d="M.09 0c-.06 0-.09.04-.09.09v7.81c0 .05.04.09.09.09h7.81c.05 0 .09-.04.09-.09v-7.81c0-.06-.04-.09-.09-.09h-7.81zm1.41.78l1.72 1.72-1.72 1.72-.72-.72 1-1-1-1 .72-.72zm2.5 2.22h3v1h-3v-1z" />
  </symbol>
  <symbol id="github">
    <path d="M512 0C229.252 0 0 229.25199999999995 0 512c0 226.251 146.688 418.126 350.155 485.813 25.593 4.686 34.937-11.125 34.937-24.626 0-12.188-0.469-52.562-0.718-95.314-128.708 23.46-161.707-31.541-172.469-60.373-5.525-14.809-30.407-60.249-52.398-72.263-17.988-9.828-43.26-33.237-0.917-33.735 40.434-0.476 69.348 37.308 78.471 52.75 45.938 77.749 119.876 55.627 148.999 42.5 4.654-32.999 17.902-55.627 32.501-68.373-113.657-12.939-233.22-56.875-233.22-253.063 0-55.94 19.968-101.561 52.658-137.404-5.22-12.999-22.844-65.095 5.063-135.563 0 0 42.937-13.749 140.811 52.501 40.811-11.406 84.594-17.031 128.124-17.22 43.499 0.188 87.314 5.874 128.188 17.28 97.689-66.311 140.686-52.501 140.686-52.501 28 70.532 10.375 122.564 5.124 135.499 32.811 35.844 52.626 81.468 52.626 137.404 0 196.686-119.751 240-233.813 252.686 18.439 15.876 34.748 47.001 34.748 94.748 0 68.437-0.686 123.627-0.686 140.501 0 13.625 9.312 29.561 35.25 24.562C877.436 929.998 1024 738.126 1024 512 1024 229.25199999999995 794.748 0 512 0z" />
  </symbol>
  <symbol id="bug">
    <path d="M3.5 0c-1.19 0-1.98 1.69-1.19 2.5-.09.07-.2.14-.28.22l-1.31-.66a.5.5 0 0 0-.34-.06.5.5 0 0 0-.09.94l1.16.56c-.09.16-.19.33-.25.5h-.69a.5.5 0 0 0-.09 0 .5.5 0 1 0 .09 1h.5c0 .23.02.45.06.66l-.78.41a.5.5 0 1 0 .44.88l.66-.34c.25.46.62.85 1.03 1.09.35-.19.59-.44.59-.72v-1.44a.5.5 0 0 0 0-.09v-.81a.5.5 0 0 0 0-.22c.05-.23.26-.41.5-.41.28 0 .5.22.5.5v.88a.5.5 0 0 0 0 .09v.06a.5.5 0 0 0 0 .09v1.34c0 .27.24.53.59.72.41-.25.79-.63 1.03-1.09l.66.34a.5.5 0 1 0 .44-.88l-.78-.41c.04-.21.06-.43.06-.66h.5a.5.5 0 1 0 0-1h-.69c-.06-.17-.16-.34-.25-.5l1.16-.56a.5.5 0 0 0-.31-.94.5.5 0 0 0-.13.06l-1.31.66c-.09-.08-.19-.15-.28-.22.78-.83 0-2.5-1.19-2.5z"
  />
  </symbol>
  <symbol id="globe">
    <path d="M4 0c-2.21 0-4 1.79-4 4s1.79 4 4 4 4-1.79 4-4-1.79-4-4-4zm0 1c.33 0 .64.09.94.19-.21.2-.45.38-.41.56.04.18.69.13.69.5 0 .27-.42.35-.13.66.35.35-.64.98-.66 1.44-.03.83.84.97 1.53.97.42 0 .53.2.5.44-.54.77-1.46 1.25-2.47 1.25-.38 0-.73-.09-1.06-.22.22-.44-.28-1.31-.75-1.59-.23-.23-.72-.14-1-.25-.09-.27-.18-.54-.19-.84.03-.05.08-.09.16-.09.19 0 .45.38.59.34.18-.04-.74-1.31-.31-1.56.2-.12.6.39.47-.16-.12-.51.36-.28.66-.41.26-.11.45-.41.13-.59-.06-.03-.13-.1-.22-.19.45-.27.97-.44 1.53-.44zm2.31 1.09c.18.22.32.46.44.72 0 .01 0 .02 0 .03-.04.07-.11.11-.22.22-.28.28-.32-.21-.44-.31-.13-.12-.6.02-.66-.13-.07-.18.5-.42.88-.53z"
  />
  </symbol>
</svg>
